<svg xmlns="http://www.w3.org/2000/svg" width="41" height="41" viewBox="0 0 41 41">
    <path fill-rule="evenodd" clip-rule="evenodd"
        d="M28.9734 33.228H12.0281C9.68645 33.228 7.77344 31.315 7.77344 28.9734V12.0281C7.77344 9.68645 9.68645 7.77344 12.0281 7.77344H28.9734C31.315 7.77344 33.228 9.68645 33.228 12.0281V28.9734C33.228 31.3254 31.3254 33.228 28.9734 33.228ZM20.5101 27.0397C18.7643 27.0397 17.1231 26.3602 15.8896 25.1267C14.656 23.8931 13.9766 22.2519 13.9766 20.5062C13.9766 18.7604 14.656 17.1192 15.8896 15.8857C17.1231 14.6521 18.7643 13.9727 20.5101 13.9727C22.2558 13.9727 23.897 14.6521 25.1306 15.8857C26.3641 17.1192 27.0436 18.7604 27.0436 20.5062C27.0436 22.2519 26.3641 23.8931 25.1306 25.1267C23.8866 26.3602 22.2558 27.0397 20.5101 27.0397ZM20.5101 15.363C17.6771 15.363 15.3669 17.6628 15.3669 20.5062C15.3669 23.3391 17.6667 25.6493 20.5101 25.6493C23.343 25.6493 25.6532 23.3495 25.6532 20.5062C25.6428 17.6732 23.343 15.363 20.5101 15.363ZM29.5636 12.5025C29.5636 13.1953 29.002 13.757 28.3092 13.757C27.6163 13.757 27.0547 13.1953 27.0547 12.5025C27.0547 11.8097 27.6163 11.248 28.3092 11.248C29.002 11.248 29.5636 11.8097 29.5636 12.5025Z" />
</svg>