<svg xmlns="http://www.w3.org/2000/svg" width="22" height="22" viewBox="0 0 22 22">
    <path
        d="M3.09992 10.7083C7.39488 8.83705 10.2589 7.60341 11.6919 7.00738C15.7834 5.30558 16.6335 5.00996 17.1877 5.00009C17.3095 4.99805 17.5821 5.02826 17.7586 5.17149C17.9076 5.29243 17.9486 5.45581 17.9683 5.57048C17.9879 5.68514 18.0123 5.94636 17.9929 6.15046C17.7712 8.48009 16.8118 14.1335 16.3237 16.7427C16.1172 17.8468 15.7105 18.217 15.3169 18.2532C14.4613 18.3319 13.8116 17.6878 12.9829 17.1446C11.6862 16.2946 10.9537 15.7654 9.69503 14.936C8.24042 13.9774 9.18338 13.4506 10.0124 12.5896C10.2293 12.3643 13.999 8.93546 14.0719 8.62441C14.0811 8.58551 14.0895 8.44051 14.0034 8.36394C13.9172 8.28737 13.7901 8.31355 13.6983 8.33438C13.5683 8.36389 11.4968 9.73307 7.48389 12.4419C6.89591 12.8457 6.36333 13.0424 5.88616 13.0321C5.36012 13.0207 4.34822 12.7346 3.59598 12.4901C2.67333 12.1902 1.94002 12.0316 2.00388 11.5223C2.03714 11.257 2.40248 10.9856 3.09992 10.7083Z" />
</svg>