<svg xmlns="http://www.w3.org/2000/svg" width="22" height="22" viewBox="0 0 22 22">
    <path
        d="M19.9788 6.74415C20.1131 7.13036 19.6765 8.03712 18.5683 9.49799C16.7548 11.916 16.5533 11.6977 18.0477 13.0914C19.4918 14.4348 19.7941 15.0728 19.8444 15.1568C19.8444 15.1568 20.4489 16.2147 19.1728 16.2147L16.7884 16.2651C16.2678 16.3658 15.5793 15.8956 15.5793 15.8956C14.6894 15.2743 13.833 13.6623 13.1781 13.8806C13.1781 13.8806 12.5065 14.0989 12.5233 15.5262C12.54 15.8453 12.3889 16.0132 12.3889 16.0132C12.3889 16.0132 12.221 16.1979 11.8852 16.2147H10.8105C8.44287 16.3658 6.34391 14.1829 6.34391 14.1829C6.34391 14.1829 4.06024 11.832 2.06202 7.11357C1.92769 6.79453 2.06202 6.6434 2.06202 6.6434C2.06202 6.6434 2.21315 6.47549 2.59936 6.47549L5.16849 6.45869C5.42036 6.49228 5.58828 6.62661 5.58828 6.62661C5.58828 6.62661 5.73941 6.72736 5.80657 6.92886C6.22637 7.96995 6.78049 8.92708 6.78049 8.92708C7.70404 10.8581 8.34212 11.194 8.71154 10.9925C8.71154 10.9925 9.1985 10.707 9.08096 8.37295C9.04737 7.51657 8.81229 7.13036 8.81229 7.13036C8.594 6.8449 8.191 6.76095 8.02308 6.72736C7.87195 6.71057 8.10704 6.37474 8.42608 6.22361C8.87946 6.00532 9.70225 5.98853 10.6594 6.00532C11.415 6.02211 11.6333 6.05569 11.9188 6.12286C12.8087 6.34115 12.5233 7.16395 12.5233 9.14537C12.5233 9.78345 12.3889 10.6734 12.8591 10.9757C13.0438 11.11 13.5308 10.9925 14.7398 8.94387C14.7398 8.94387 15.2939 7.96995 15.7473 6.8449C15.8144 6.62661 15.9823 6.54265 15.9823 6.54265C15.9823 6.54265 16.1167 6.45869 16.335 6.49228L19.0216 6.47549C19.8444 6.37474 19.9788 6.74415 19.9788 6.74415Z" />
</svg>