<svg xmlns="http://www.w3.org/2000/svg" width="22" height="22" viewBox="0 0 22 22">
    <path fill-rule="evenodd" clip-rule="evenodd"
        d="M16.7246 5.20328C17.4656 5.89836 18.0492 6.70492 18.4557 7.60328C18.8754 8.54098 19.0918 9.53115 19.0853 10.5607C19.0853 11.5836 18.8689 12.5803 18.4492 13.5115C18.0426 14.4098 17.459 15.2164 16.718 15.9115C15.9771 16.6066 15.118 17.1443 14.1607 17.5246C13.1705 17.918 12.1213 18.1148 11.0393 18.1148C9.87869 18.1148 8.7705 17.8918 7.72788 17.4459L4.23934 19L4.89508 15.4262C3.66885 14.0623 3 12.3443 3 10.5541C3 9.53115 3.21641 8.53443 3.63608 7.60328C4.04264 6.70492 4.62624 5.89836 5.36722 5.20328C6.1082 4.5082 6.96722 3.97049 7.9246 3.59016C8.91476 3.19672 9.96395 3 11.0459 3C12.1279 3 13.1771 3.19672 14.1672 3.59016C15.1246 3.97049 15.9836 4.51475 16.7246 5.20328ZM13.5458 11.722C13.7229 11.7875 13.972 11.8924 14.313 12.0629C14.405 12.1102 14.5017 12.1499 14.5992 12.1899C14.7588 12.2554 14.9206 12.3218 15.0671 12.4236C15.1852 12.581 15.2179 12.7121 15.1393 13.0597C13.5917 17.0597 5.98517 11.2564 7.25075 8.2072C7.46058 7.72851 7.97203 6.81048 8.86383 7.2695C9.00326 7.33921 9.06163 7.48708 9.11973 7.63425C9.14908 7.70858 9.17835 7.78273 9.21796 7.84655C9.30426 8.02737 9.39828 8.23394 9.47905 8.4114C9.52716 8.51709 9.57057 8.61246 9.60484 8.68589C9.61561 8.72493 9.63716 8.76813 9.66109 8.81609C9.75372 9.00172 9.88201 9.25882 9.55892 9.62359C9.53101 9.6771 9.46842 9.74464 9.40017 9.81831C9.27603 9.95227 9.13313 10.1065 9.14582 10.2334C9.25074 10.4236 9.73598 11.1318 9.99828 11.381C10.5884 11.9515 11.3425 12.5088 12.1557 12.6662C12.3475 12.5933 12.5327 12.334 12.7111 12.0841C12.8375 11.907 12.9606 11.7346 13.0802 11.6367C13.1587 11.5751 13.3618 11.6523 13.4887 11.7007C13.5103 11.7089 13.5296 11.7162 13.5458 11.722Z" />
</svg>