<svg xmlns="http://www.w3.org/2000/svg" width="118" height="163" viewBox="0 0 118 163" fill="none">
    <path fill-rule="evenodd" clip-rule="evenodd"
        d="M41.5 0V79H53.4998L53.4998 139.515L9.24261 95.2574L0.757322 103.743L59.525 162.51L63.7675 158.217L65.9713 155.987C67.3751 154.565 69.383 152.532 71.7998 150.084C76.6333 145.187 83.1028 138.629 89.646 131.985C102.569 118.864 116.205 104.981 117.555 103.405L108.444 95.5953C108.455 95.5822 108.405 95.6399 108.245 95.8126C108.101 95.9672 107.909 96.1718 107.665 96.4277C107.179 96.9386 106.523 97.6206 105.717 98.4541C104.105 100.119 101.924 102.356 99.3637 104.972C94.245 110.203 87.6361 116.925 81.0963 123.565C75.5221 129.225 70.0008 134.823 65.4998 139.384V78.5H53.5V0H41.5Z"
        fill="#E7AF8F" />
</svg>