<svg xmlns="http://www.w3.org/2000/svg" width="32" height="30" viewBox="0 0 32 30" fill="none"
    vector-effect="non-scaling-stroke">
    <path
        d="M9.90238 16.7272H0.5V3.35547H13.9886V15.0558C13.9886 19.4992 12.1061 22.5332 10.2219 24.4645C9.27747 25.4325 8.3326 26.1229 7.62515 26.5704C7.31824 26.7646 7.05681 26.9125 6.86059 27.0172L6.66878 26.7C6.79522 26.5594 6.96063 26.3699 7.15167 26.1377C7.5895 25.6056 8.16502 24.8457 8.71482 23.9346C9.8032 22.1309 10.8439 19.6466 10.3945 17.139L10.3207 16.7272H9.90238Z"
        stroke="#B7B7B7" />
    <path
        d="M27.4102 16.7272H18.0078V3.35547H31.4964V15.0558C31.4964 19.4992 29.6139 22.5332 27.7297 24.4645C26.7853 25.4325 25.8404 26.1229 25.133 26.5704C24.8261 26.7646 24.5646 26.9125 24.3684 27.0172L24.1766 26.7C24.303 26.5594 24.4684 26.3699 24.6595 26.1377C25.0973 25.6056 25.6728 24.8457 26.2226 23.9346C27.311 22.1309 28.3518 19.6466 27.9023 17.139L27.8285 16.7272H27.4102Z"
        stroke="#B7B7B7" />
</svg>