<svg xmlns="http://www.w3.org/2000/svg" width="100" height="94" viewBox="0 0 100 94" fill="none"
    vector-effect="non-scaling-stroke">
    <path
        d="M30.9449 53.8059H0.5V9.5H44.7768V47.4607C44.7768 61.8094 38.7399 71.6315 32.7024 77.8743C29.6813 80.998 26.6598 83.2252 24.395 84.6705C23.2629 85.393 22.3209 85.9194 21.664 86.2643C21.4137 86.3958 21.2048 86.5008 21.0427 86.5802L19.5168 84.0346C19.616 83.9281 19.741 83.7921 19.8888 83.6283C20.2894 83.1843 20.8573 82.535 21.5299 81.7104C22.8744 80.0621 24.6403 77.7096 26.3251 74.8929C29.6838 69.2779 32.772 61.7317 31.4372 54.2184L31.3639 53.8059H30.9449Z"
        stroke="#B7B7B7" />
    <path
        d="M85.6637 53.8059H55.2188V9.5H99.4955V47.4607C99.4955 61.8094 93.4587 71.6315 87.4211 77.8743C84.4 80.998 81.3785 83.2252 79.1137 84.6705C77.9816 85.393 77.0397 85.9194 76.3828 86.2643C76.1325 86.3958 75.9236 86.5008 75.7615 86.5802L74.2355 84.0346C74.3347 83.9281 74.4598 83.7921 74.6076 83.6283C75.0082 83.1843 75.5761 82.535 76.2486 81.7104C77.5931 80.0621 79.359 77.7096 81.0439 74.8929C84.4025 69.2779 87.4907 61.7317 86.156 54.2184L86.0827 53.8059H85.6637Z"
        stroke="#B7B7B7" />
</svg>